<?xml version="1.0" standalone="no"?>
<!DOCTYPE svg PUBLIC "-//W3C//DTD SVG 20010904//EN"
 "http://www.w3.org/TR/2001/REC-SVG-20010904/DTD/svg10.dtd">
<svg version="1.0" xmlns="http://www.w3.org/2000/svg"
 width="140.000000pt" height="140.000000pt" viewBox="0 0 140.000000 140.000000"
 preserveAspectRatio="xMidYMid meet">
<metadata>
Created by potrace 1.11, written by Peter Selinger 2001-2013
</metadata>
<g transform="translate(0.000000,140.000000) scale(0.100000,-0.100000)"
fill="#000000" stroke="none">
<path d="M744 1372 c-14 -9 -134 -216 -134 -231 0 -15 -28 -27 -95 -41 -77
-15 -179 -55 -230 -90 -47 -33 -125 -108 -125 -122 0 -5 -7 -16 -15 -24 -12
-12 -15 -43 -15 -142 0 -146 12 -184 77 -249 46 -46 172 -110 248 -125 l55
-11 0 -67 0 -67 -67 -28 c-110 -46 -109 -63 1 -26 l56 20 16 -37 c13 -32 17
-35 25 -20 9 17 12 17 50 -3 64 -32 68 -17 6 25 -51 33 -61 45 -59 67 1 3 3
29 6 59 3 29 8 55 11 58 3 3 45 -4 93 -16 48 -12 105 -24 127 -27 78 -11 80
-13 89 -93 4 -41 -17 -64 -77 -82 -23 -6 -53 -18 -67 -26 -23 -12 -24 -13 -4
-14 12 0 40 6 62 14 34 12 43 12 60 0 11 -7 23 -25 26 -39 11 -44 24 -27 22
30 -2 39 2 55 11 56 7 1 18 3 23 4 6 1 28 3 51 4 24 0 38 5 34 11 -3 6 -14 10
-23 10 -9 0 -33 5 -53 10 -34 10 -36 12 -38 56 0 26 -3 50 -6 53 -2 4 19 15
48 24 141 45 288 190 320 316 48 188 -33 345 -224 436 -46 22 -87 44 -90 49
-8 10 -1 33 36 131 34 91 37 115 14 115 -9 0 -19 -3 -21 -7 -4 -11 -105 -93
-113 -93 -8 0 2 34 22 78 8 19 12 36 9 39 -9 9 -31 -13 -82 -83 -26 -35 -49
-64 -51 -64 -3 0 0 32 12 143 3 28 -2 32 -21 19z"/>
</g>
</svg>
